<?xml version="1.0" encoding="utf-8"?>
<!-- Generator: Adobe Illustrator 25.4.1, SVG Export Plug-In . SVG Version: 6.00 Build 0)  -->
<svg version="1.1" xmlns="http://www.w3.org/2000/svg" xmlns:xlink="http://www.w3.org/1999/xlink" x="0px" y="0px"
	 viewBox="0 0 400 200" style="enable-background:new 0 0 400 200;" xml:space="preserve">
<g id="name">
	<g>
		<g>
			<path d="M15.48,16.54c3.6-0.41,7.2-0.83,10.8-1.24c1.72-0.2,3.44-0.39,5.17-0.59c0.94-0.11,1.88-0.22,2.82-0.32
				c0.64-0.07,1.48-0.33,2.01-0.11c-0.37-0.21-0.74-0.43-1.1-0.64c0.08,0.07,0.15,0.14,0.23,0.21c0-1.18,0-2.36,0-3.54
				c-7.59,7.75-14.99,15.67-22.21,23.77c-1.68,1.88-0.05,4.72,2.43,4.18c3.7-0.81,7.41-0.87,11.18-0.72
				c3.93,0.16,7.86,0.37,11.79,0.56c3.22,0.15,3.21-4.85,0-5c-8.06-0.38-16.35-1.41-24.31,0.34c0.81,1.39,1.62,2.79,2.43,4.18
				c7.22-8.1,14.62-16.02,22.21-23.77c0.91-0.93,1.01-2.62,0-3.54c-1.66-1.51-3.58-1.05-5.61-0.81c-1.96,0.22-3.91,0.45-5.87,0.67
				c-3.99,0.46-7.98,0.92-11.97,1.37c-1.34,0.15-2.5,1.04-2.5,2.5C12.98,15.27,14.13,16.69,15.48,16.54L15.48,16.54z"/>
		</g>
	</g>
	<g>
		<g>
			<path d="M50.52,19.67c0.1,5.79-0.47,11.53-1.75,17.18c-0.3,1.32,0.4,2.71,1.75,3.08c1.26,0.35,2.78-0.42,3.08-1.75
				c1.37-6.06,2.03-12.29,1.92-18.51c-0.02-1.35-1.13-2.5-2.5-2.5C51.68,17.17,50.49,18.31,50.52,19.67L50.52,19.67z"/>
		</g>
	</g>
	<g>
		<g>
			<path d="M50.89,8.24c-0.09,0.35-0.17,0.7-0.26,1.05c-0.1,0.33-0.12,0.66-0.04,1c0.02,0.33,0.11,0.64,0.3,0.93
				c0.16,0.29,0.37,0.53,0.64,0.7c0.24,0.22,0.52,0.37,0.85,0.45c0.22,0.03,0.44,0.06,0.66,0.09c0.45,0,0.87-0.12,1.26-0.34
				c0.17-0.13,0.34-0.26,0.51-0.39c0.31-0.31,0.52-0.68,0.64-1.1c0.09-0.35,0.17-0.7,0.26-1.05c0.1-0.33,0.12-0.66,0.04-1
				c-0.02-0.33-0.11-0.64-0.3-0.93c-0.16-0.29-0.37-0.53-0.64-0.7c-0.24-0.22-0.52-0.37-0.85-0.45c-0.22-0.03-0.44-0.06-0.66-0.09
				c-0.45,0-0.87,0.12-1.26,0.34c-0.17,0.13-0.34,0.26-0.51,0.39C51.23,7.45,51.01,7.82,50.89,8.24L50.89,8.24z"/>
		</g>
	</g>
	<g>
		<g>
			<path d="M60.79,18.09c-0.05,1.36-0.05,2.71-0.01,4.07c0.04,1.24,0.04,2.55,0.63,3.67c1.3,2.46,4.48,2.71,6.76,1.59
				c1.96-0.96,3.3-2.88,4.44-4.68c1.47-2.33,2.46-4.83,1.85-7.61c-0.61-2.75-5-2.15-4.91,0.66c0.18,5.84,0.52,11.69,0.53,17.53
				c0.01,1.95-0.55,3.7-2.12,4.96c-0.93,0.74-3.14,1.83-4.28,0.92c-1.06-0.84-2.5-1.03-3.54,0c-0.87,0.87-1.07,2.69,0,3.54
				c5.23,4.13,12.47,0.11,14.42-5.56c1.08-3.14,0.44-6.95,0.34-10.2c-0.12-3.73-0.23-7.45-0.35-11.18
				c-1.64,0.22-3.27,0.44-4.91,0.66c0.26,1.19-0.52,2.4-1.11,3.38c-0.59,0.97-1.23,2.07-2.13,2.81c-0.03,0.03-0.97,0.55-0.96,0.46
				c0.01-0.05-0.82-0.1,0.18,0.12c0.36,0.08,0.04,0.33,0.2-0.12c0.21-0.59-0.07-1.75-0.07-2.39c-0.01-0.88,0.01-1.75,0.04-2.63
				C65.9,14.87,60.9,14.88,60.79,18.09L60.79,18.09z"/>
		</g>
	</g>
	<g>
		<g>
			<path d="M95.65,16.88c-3.52-1.19-7.07,0.9-9,3.78c-0.9,1.34-1.47,2.9-1.95,4.43c-0.5,1.62-0.92,3.35-0.88,5.06
				c0.09,3.57,2.45,6.94,6.2,7.27c3.61,0.32,5.73-3.26,7.61-5.76c2.16-2.89,4.07-6.06,4.85-9.62c-1.61-0.44-3.21-0.89-4.82-1.33
				c-0.87,5.12-0.17,10.22,2.1,14.9c0.57,1.18,2.35,1.59,3.42,0.9c1.21-0.78,1.51-2.16,0.9-3.42c-0.28-0.58-0.3-0.61-0.51-1.15
				c-0.18-0.47-0.34-0.94-0.48-1.41c-0.3-1-0.54-2.02-0.69-3.05c0.06,0.4-0.04-0.4-0.04-0.42c-0.02-0.23-0.04-0.45-0.05-0.68
				c-0.03-0.5-0.05-1-0.05-1.49c0-0.54,0.03-1.09,0.07-1.63c0.02-0.27,0.05-0.54,0.08-0.81c-0.05,0.4,0.07-0.4,0.07-0.41
				c0.22-1.28-0.34-2.75-1.75-3.08c-1.26-0.29-2.78,0.38-3.08,1.75c-0.13,0.6-0.28,1.18-0.48,1.76c-0.08,0.25-0.17,0.49-0.26,0.73
				c-0.18,0.47-0.09,0.23-0.04,0.12c-0.07,0.16-0.14,0.32-0.21,0.47c-0.52,1.11-1.14,2.16-1.81,3.18c-0.34,0.51-0.69,1.02-1.06,1.52
				c-0.18,0.25-0.37,0.5-0.55,0.75c-0.2,0.26-0.39,0.51-0.41,0.54c-0.35,0.45-0.7,0.9-1.06,1.35c-0.18,0.22-0.36,0.45-0.54,0.66
				c-0.08,0.09-0.16,0.18-0.25,0.27c0,0-0.48,0.42-0.29,0.28c0.2-0.14-0.13,0.07-0.14,0.08c0.38-0.23,0.08-0.04,0,0
				c-0.04,0.02-0.4,0.1-0.06,0.03c0.31-0.06,0.01-0.01-0.06-0.01c-0.45,0.01-0.03,0.01,0.07,0.03c-0.1-0.02-0.2-0.04-0.29-0.07
				c-0.08-0.02-0.46-0.19-0.18-0.05c0.28,0.14-0.11-0.08-0.16-0.11c-0.06-0.04-0.42-0.29-0.18-0.1c0.23,0.17-0.04-0.04-0.07-0.07
				c-0.09-0.09-0.5-0.57-0.37-0.38c0.14,0.21-0.2-0.38-0.25-0.46c0.24,0.44-0.05-0.24-0.1-0.43c-0.01-0.05-0.09-0.59-0.07-0.32
				c0.02,0.23,0-0.21,0-0.2c0-0.31-0.01-0.63,0.02-0.94c0.01-0.14,0.02-0.27,0.04-0.41c-0.04,0.34,0.02-0.11,0.03-0.15
				c0.07-0.36,0.15-0.72,0.24-1.07c0.14-0.56,0.31-1.11,0.49-1.66c0.09-0.28,0.19-0.57,0.29-0.85c0.04-0.12,0.09-0.24,0.14-0.36
				c0.06-0.16,0.06-0.16-0.01,0.01c0.04-0.08,0.07-0.16,0.11-0.23c0.29-0.61,0.61-1.21,1.02-1.75c-0.04,0.05-0.18,0.22,0,0.01
				c0.14-0.15,0.27-0.31,0.42-0.45c0.09-0.08,0.17-0.16,0.26-0.24c0.29-0.26-0.27,0.17,0.06-0.04c0.13-0.09,0.27-0.17,0.4-0.25
				c0.04-0.02,0.45-0.24,0.23-0.14c-0.25,0.12,0.19-0.07,0.25-0.09c0.15-0.05,0.31-0.07,0.45-0.12c0.34-0.13-0.34-0.02,0.02-0.01
				c0.14,0,0.32,0.01,0.46-0.01c0.25-0.04-0.01-0.02-0.09-0.03c0.23,0.04,0.45,0.11,0.67,0.18c1.24,0.42,2.79-0.48,3.08-1.75
				C97.71,18.57,96.98,17.33,95.65,16.88L95.65,16.88z"/>
		</g>
	</g>
	<g>
		<g>
			<path d="M118.25,6.81c0.01,9.24,0.01,18.49,0.02,27.73c0,1.13,0.02,2.26,0,3.39c-0.01,0.66-0.08,1.27-0.36,1.57
				c0.13-0.13-0.17,0.07-0.19,0.08c-0.38,0.15-0.28,0.09-0.58,0.1c-0.35,0.01-0.88-0.1-1.25-0.3c-0.99-0.55-1.43-2.07-1.47-3.33
				c-0.03-0.82,0.03-1.64,0.2-2.44c0.04-0.2,0.32-0.83,0.1-0.63c-0.21,0.2,0.49,0.03,0.76,0.06c1.94,0.24,3.59,1.68,4.95,2.97
				c1.74,1.64,3.38,3.34,5.4,4.65c2.71,1.76,5.21-2.57,2.52-4.32c-2.12-1.38-3.71-3.39-5.65-5c-2.09-1.73-4.46-3.11-7.23-3.3
				c-3.08-0.21-5.23,1.65-5.76,4.62c-0.46,2.57-0.45,5.22,0.64,7.63c1.81,3.99,7.47,6.04,10.97,2.83c2.09-1.91,1.93-4.74,1.93-7.34
				c0-2.97,0-5.94-0.01-8.91c0-6.68-0.01-13.37-0.01-20.05C123.25,3.59,118.25,3.58,118.25,6.81L118.25,6.81z"/>
		</g>
	</g>
	<g>
		<g>
			<path d="M169.74,4.19c-4.42,0.7-8.84,1.39-13.26,2.09c-1.06,0.17-2.13,0.34-3.19,0.5c-0.94,0.15-2.01,0.18-2.85,0.67
				c-2.27,1.33-1.43,4.01-1.04,6.1c1.62,8.65,3.24,17.3,4.86,25.95c0.25,1.33,1.85,2.08,3.08,1.75c1.39-0.38,2-1.74,1.75-3.08
				c-0.89-4.77-1.79-9.54-2.68-14.31c-0.44-2.34-0.88-4.69-1.32-7.03c-0.21-1.13-0.42-2.26-0.64-3.39c-0.2-1.05-0.62-2.45-0.58-3.37
				c-0.11,0.42-0.23,0.84-0.34,1.26c-0.02,0.02-0.04,0.04-0.06,0.06c-0.37,0.21-0.74,0.43-1.1,0.64c1.37-0.5,3.03-0.54,4.46-0.77
				c1.55-0.25,3.11-0.49,4.66-0.74c3.19-0.5,6.38-1.01,9.57-1.51c1.33-0.21,2.08-1.88,1.75-3.08
				C172.42,4.51,171.08,3.98,169.74,4.19L169.74,4.19z"/>
		</g>
	</g>
	<g>
		<g>
			<path d="M155.67,27.23c2.89-0.11,5.77-0.21,8.66-0.32c1.31-0.05,2.56-1.12,2.5-2.5c-0.06-1.31-1.1-2.55-2.5-2.5
				c-2.89,0.11-5.77,0.21-8.66,0.32c-1.31,0.05-2.56,1.12-2.5,2.5C153.23,26.04,154.27,27.28,155.67,27.23L155.67,27.23z"/>
		</g>
	</g>
	<g>
		<g>
			<path d="M183.24,20.3c-1.96,0.08-3.59,1.03-5.22,2.02c-1.42,0.86-2.84,1.84-3.9,3.12c-2.24,2.69-2.82,6.1-2.88,9.52
				c-0.03,1.79-0.16,3.77,0.78,5.38c0.96,1.64,2.91,2.46,4.75,2.51c3.78,0.1,6.74-2.84,8.28-6.01c1.77-3.62,3.19-7.64,3.9-11.61
				c-1.64-0.22-3.27-0.44-4.91-0.66c-0.05,4.63,1.18,9.22,3.55,13.21c1.64,2.76,5.97,0.25,4.32-2.52c-1.95-3.28-2.91-6.9-2.87-10.68
				c0.01-1.23-0.96-2.31-2.17-2.46c-1.13-0.13-2.52,0.55-2.74,1.79c-0.51,2.84-1.43,5.56-2.48,8.24c-0.46,1.17-0.81,2.08-1.47,3.21
				c-0.59,1.01-1.12,1.58-2.04,2.15c-0.27,0.17-0.17,0.12-0.55,0.24c-0.13,0.04-0.26,0.08-0.4,0.1c0.05-0.01,0.3-0.02-0.01,0
				c-0.15,0.01-0.71-0.01-0.61,0c0.23,0.02-0.15-0.05-0.16-0.06c0.24,0.12,0.04,0.03-0.08-0.04c-0.43-0.24,0.07-0.06,0.02,0.11
				c0.01-0.06-0.07-0.24-0.08-0.32c-0.07-0.61-0.03-1.25-0.03-1.87c0-0.61,0.01-1.23,0.05-1.84c0.02-0.28,0.04-0.56,0.06-0.85
				c0.01-0.14,0.03-0.28,0.04-0.42c-0.04,0.31,0.04-0.21,0.05-0.3c0.22-1.22,0.49-2.1,1.05-2.99c0.25-0.4,0.56-0.76,1.04-1.2
				c0.5-0.45,0.79-0.65,1.41-1.05c0.56-0.36,1.13-0.69,1.71-1.02c0.56-0.32,1.2-0.67,1.6-0.69c1.35-0.05,2.5-1.11,2.5-2.5
				C185.74,21.49,184.59,20.24,183.24,20.3L183.24,20.3z"/>
		</g>
	</g>
	<g>
		<g>
			<path d="M198.12,21.53c0.7,6.05,1.34,12.1,1.91,18.15c0.1,1.01,0.55,1.89,1.54,2.28c0.88,0.35,2.07,0.24,2.73-0.52
				c3.16-3.61,6.05-7.47,8.6-11.53c-1.55-0.42-3.11-0.84-4.66-1.26c0.68,5.59,4.93,9.48,8.51,13.46c1.48,1.64,4.27,0.32,4.27-1.77
				c0-1.49,0.06-2.84,0.55-4.25c0.5-1.45,1.13-2.84,1.53-4.32c0.81-3.06,1.03-6.29,0.62-9.44c-0.18-1.34-1.02-2.5-2.5-2.5
				c-1.21,0-2.68,1.15-2.5,2.5c0.39,2.98,0.23,5.95-0.65,8.83c-0.42,1.4-1.06,2.72-1.49,4.11c-0.5,1.64-0.56,3.37-0.56,5.07
				c1.42-0.59,2.85-1.18,4.27-1.77c-1.56-1.73-3.18-3.42-4.65-5.23c-1.07-1.33-2.2-2.99-2.4-4.69c-0.13-1.11-0.68-2.09-1.84-2.41
				c-1.09-0.3-2.23,0.21-2.82,1.15c-2.33,3.71-4.93,7.22-7.82,10.52c1.42,0.59,2.85,1.18,4.27,1.77
				c-0.58-6.06-1.21-12.11-1.91-18.15c-0.16-1.34-1.04-2.5-2.5-2.5C199.39,19.03,197.96,20.18,198.12,21.53L198.12,21.53z"/>
		</g>
	</g>
	<g>
		<g>
			<path d="M228.4,25.27c3.91-0.45,8.23-1.52,12.01,0.09c-0.17-1.31-0.34-2.62-0.51-3.93c-4.29,4.86-8.32,9.95-12.05,15.24
				c-1.03,1.46-2.41,3.07-1.33,4.92c1.04,1.79,3.39,1.52,5.15,1.57c3.36,0.1,6.72,0.2,10.08,0.29c1.35,0.04,2.5-1.18,2.5-2.5
				c0-1.39-1.14-2.46-2.5-2.5c-2.12-0.06-4.23-0.12-6.35-0.18c-1-0.03-1.99-0.06-2.99-0.09c-0.56-0.02-1.12-0.03-1.68-0.05
				c-0.25-0.01-0.5-0.01-0.75-0.02c-0.12,0-0.25-0.01-0.37-0.01c-0.55-0.04-0.28,0.11,0.83,0.46c0.21,0.37,0.43,0.74,0.64,1.1
				c-0.02-0.06-0.05-0.12-0.07-0.17c0,0.44,0,0.89,0,1.33c-0.13,0.22-0.09,0.16,0.13-0.17c0.13-0.19,0.27-0.39,0.4-0.58
				c0.27-0.39,0.54-0.78,0.82-1.16c0.48-0.68,0.96-1.35,1.45-2.02c0.96-1.31,1.93-2.6,2.93-3.88c2.15-2.75,4.38-5.43,6.69-8.05
				c0.94-1.06,1.08-3.25-0.51-3.93c-2.28-0.97-4.64-1.57-7.13-1.54c-2.46,0.03-4.96,0.48-7.4,0.76c-1.34,0.15-2.5,1.04-2.5,2.5
				C225.9,24,227.05,25.42,228.4,25.27L228.4,25.27z"/>
		</g>
	</g>
	<g>
		<g>
			<path d="M249.86,25.21c0.17,2.59,0.43,5.27,2.06,7.4c1.56,2.04,4.05,3.28,6.64,2.67c2.2-0.52,3.92-2.34,4.81-4.35
				c1.15-2.56,0.91-5.37,1.62-8.04c-1.61,0-3.21,0-4.82,0c2.81,6.7,5.95,13.44,7.12,20.67c0.25,1.52,0.46,3.17,0.32,4.71
				c-0.11,1.21-0.51,1.88-1.68,2.25c-3.25,1.05-7.07,1.02-10.4,0.45c-1.33-0.23-2.69,0.35-3.08,1.75c-0.33,1.2,0.41,2.85,1.75,3.08
				c4.24,0.72,8.9,0.84,13.06-0.45c1.95-0.6,3.66-1.74,4.55-3.64c0.83-1.76,0.89-3.73,0.76-5.64c-0.6-8.66-4.27-16.62-7.58-24.51
				c-0.43-1.04-1.21-1.84-2.41-1.84c-1.09,0-2.13,0.78-2.41,1.84c-0.48,1.82-0.5,3.69-0.83,5.54c-0.19,1.07-0.53,2.45-1.5,3.1
				c-2.37,1.58-2.9-3.81-2.97-4.99c-0.09-1.35-1.09-2.5-2.5-2.5C251.08,22.71,249.77,23.85,249.86,25.21L249.86,25.21z"/>
		</g>
	</g>
	<g>
		<g>
			<path d="M14.98,56.93c1.46,3.69,2.37,7.56,2.66,11.52c0.04,0.59,0.43,0.92,1,1c1.66,0.22,2.14-1.75,2.41-2.96
				c0.42-1.88,0.84-3.77,1.26-5.65c-0.61,0.08-1.22,0.16-1.83,0.24c1.55,2.27,3.46,4.2,5.7,5.78c0.65,0.46,1.48-0.16,1.5-0.86
				c0.12-4.12-0.12-8.23-0.7-12.31c-0.08-0.54-0.76-0.82-1.23-0.7c-0.58,0.15-0.77,0.7-0.7,1.23c0.55,3.9,0.75,7.84,0.63,11.78
				c0.5-0.29,1-0.58,1.5-0.86c-1.95-1.38-3.63-3.1-4.98-5.06c-0.45-0.66-1.63-0.66-1.83,0.24c-0.31,1.41-0.63,2.83-0.94,4.24
				c-0.15,0.66-0.29,1.32-0.44,1.98c-0.06,0.26-0.13,0.49-0.21,0.74c-0.04,0.09-0.09,0.17-0.14,0.24c0.21-0.03,0.21-0.04-0.01-0.05
				c0.33,0.33,0.67,0.67,1,1c-0.31-4.14-1.21-8.19-2.74-12.05C16.44,55.21,14.51,55.73,14.98,56.93L14.98,56.93z"/>
		</g>
	</g>
	<g>
		<g>
			<path d="M31.1,65.15c0.89-0.43,1.73-0.95,2.51-1.55c0.78-0.6,1.63-1.28,1.86-2.28c0.44-1.93-1.6-3.49-3.38-3.21
				c-1.86,0.29-3.06,2.1-3.52,3.79c-0.49,1.8-0.27,3.82,0.93,5.3c1.26,1.55,3.43,2.1,5.24,1.28c0.49-0.22,0.61-0.94,0.36-1.37
				c-0.3-0.51-0.87-0.58-1.37-0.36c-0.72,0.33-1.76,0.06-2.42-0.54c-0.82-0.75-1.1-1.97-0.96-3.11c0.13-1.04,0.62-2.27,1.54-2.82
				c0.19-0.11,0.44-0.21,0.6-0.22c0.12-0.01,0.37,0.04,0.47,0.09c0.18,0.09,0.37,0.23,0.41,0.29c0.04,0.05,0.08,0.12,0.12,0.18
				c-0.01-0.03-0.06-0.17,0.02,0.06c0,0,0.05,0.16,0.02,0.07c-0.03-0.08-0.02,0.17,0.01,0.03c-0.13,0.57-0.83,1.02-1.28,1.35
				c-0.68,0.5-1.41,0.93-2.17,1.3c-0.49,0.23-0.62,0.93-0.36,1.37C30.02,65.29,30.61,65.39,31.1,65.15L31.1,65.15z"/>
		</g>
	</g>
	<g>
		<g>
			<path d="M38.22,54.83c0.63,3.03,1.34,6.03,2.15,9.01c0.42,1.54,0.86,3.07,1.33,4.59c0.32,1.05,0.69,2.46,1.96,2.68
				c1.42,0.24,1.9-1.19,2.34-2.22c0.55-1.28,1.31-2.64,1.17-4.08c-0.12-1.14-0.81-2.25-1.98-2.54c-1.16-0.28-2.31,0.38-2.68,1.49
				c-0.41,1.22,1.52,1.75,1.93,0.53c0.03-0.1,0.25-0.1,0.33-0.07c0.29,0.09,0.41,0.57,0.43,0.81c0.07,0.88-0.47,1.81-0.81,2.59
				c-0.18,0.42-0.35,0.84-0.54,1.26c-0.04,0.09-0.08,0.18-0.13,0.27c-0.14,0.2,0,0.22,0.44,0.06c0.01-0.02-0.18-0.28-0.2-0.31
				c-0.42-0.86-0.61-1.95-0.88-2.87c-1.13-3.87-2.1-7.79-2.92-11.75C39.89,53.03,37.96,53.57,38.22,54.83L38.22,54.83z"/>
		</g>
	</g>
	<g>
		<g>
			<path d="M55.4,56.45c0.26,4.02,0.86,8.01,1.81,11.92c0.3,1.25,2.23,0.72,1.93-0.53c-0.91-3.74-1.49-7.54-1.74-11.39
				C57.32,55.17,55.32,55.16,55.4,56.45L55.4,56.45z"/>
		</g>
	</g>
	<g>
		<g>
			<path d="M57.11,56.16c1.61-0.37,3.53-0.63,5.06,0.14c1.44,0.72,2.01,2.19,1.92,3.73c-0.23,3.86-4.17,5.88-7.18,7.44
				c-1.14,0.59-0.13,2.32,1.01,1.73c3.12-1.62,6.51-3.52,7.75-7.04c1.11-3.16-0.02-6.77-3.33-7.94c-1.84-0.65-3.91-0.42-5.77,0.01
				C55.32,54.52,55.85,56.45,57.11,56.16L57.11,56.16z"/>
		</g>
	</g>
	<g>
		<g>
			<path d="M67.69,67.53c1.03-0.04,2-0.3,2.94-0.7c0.79-0.34,1.59-0.78,2.22-1.38c0.7-0.67,1.12-1.66,0.82-2.62
				c-0.26-0.88-1.05-1.57-1.94-1.77c-1.89-0.43-3.62,0.99-4.24,2.68c-0.55,1.49-0.27,3.23,0.73,4.46c1.28,1.57,3.42,1.89,5.3,2.14
				c0.54,0.07,1-0.51,1-1c0-0.6-0.46-0.93-1-1c-0.11-0.01-0.12-0.02-0.29-0.04c-0.15-0.02-0.3-0.04-0.45-0.07
				c-0.34-0.06-0.67-0.12-1-0.21c-0.64-0.16-1.03-0.31-1.57-0.68c-0.34-0.22-0.64-0.61-0.8-0.96c-0.04-0.1-0.15-0.47-0.18-0.69
				c0.03,0.2-0.01-0.16-0.01-0.2c-0.01-0.14,0-0.28,0.01-0.43c0-0.03,0.02-0.22,0.01-0.1c-0.02,0.12,0.01-0.07,0.02-0.1
				c0.03-0.12,0.06-0.25,0.09-0.37c0.02-0.06,0.04-0.12,0.06-0.18c0.05-0.15-0.06,0.12,0.01-0.02c0.06-0.13,0.12-0.25,0.2-0.37
				c0.04-0.07,0.08-0.13,0.13-0.2c0.09-0.13-0.09,0.1,0.02-0.02c0.08-0.09,0.17-0.18,0.26-0.27c0.11-0.1,0.4-0.29,0.57-0.35
				c0.24-0.09,0.47-0.12,0.62-0.1c0.06,0.01,0.13,0.03,0.2,0.05c-0.13-0.05,0.02,0.01,0.04,0.02c0.06,0.03,0.12,0.07,0.17,0.11
				c-0.12-0.1,0.1,0.12,0.1,0.12c-0.12-0.15,0.16,0.25,0.04,0.08c0.06,0.08,0.03,0.13,0.02,0.03c0.01,0.06,0.01,0.14,0,0.2
				c0.02-0.19-0.12,0.23-0.04,0.07c-0.11,0.2-0.05,0.13-0.22,0.3c-0.42,0.44-1.08,0.78-1.71,1.06c-0.66,0.29-1.4,0.48-2.11,0.51
				c-0.54,0.02-1,0.45-1,1C66.69,67.06,67.15,67.55,67.69,67.53L67.69,67.53z"/>
		</g>
	</g>
	<g>
		<g>
			<path d="M76.82,62.84c0.24,1.38,0.58,2.73,1.02,4.06c0.22,0.66,0.46,1.32,0.73,1.96c0.15,0.36,0.28,0.74,0.56,1.03
				c0.34,0.34,0.84,0.48,1.31,0.37c0.8-0.2,1.11-0.98,1.39-1.66c0.26-0.65,0.51-1.31,0.74-1.98c0.46-1.33,0.84-2.69,1.15-4.06
				c0.12-0.53-0.16-1.08-0.7-1.23c-0.5-0.14-1.11,0.17-1.23,0.7c-0.26,1.16-0.58,2.3-0.94,3.43c-0.18,0.56-0.38,1.13-0.59,1.68
				c-0.1,0.27-0.2,0.53-0.31,0.8c-0.04,0.1-0.12,0.31-0.14,0.35c0.02-0.05,0.01-0.02-0.04,0.07c-0.07,0.1-0.07,0.11-0.01,0.04
				c0.23-0.15,0.5-0.13,0.79,0.07c0.01,0.01,0.03,0.03,0.04,0.04c0.01-0.06-0.1-0.21-0.14-0.31c-0.1-0.24-0.19-0.49-0.29-0.73
				c-0.21-0.57-0.41-1.15-0.59-1.74c-0.34-1.13-0.61-2.28-0.82-3.44c-0.09-0.53-0.74-0.83-1.23-0.7
				C76.96,61.76,76.73,62.3,76.82,62.84L76.82,62.84z"/>
		</g>
	</g>
	<g>
		<g>
			<path d="M87.53,66.41c1.67-0.1,3.14-1.03,4.01-2.45c0.82-1.34,1.16-3.45-0.02-4.69c-0.72-0.75-1.84-0.8-2.6-0.06
				c-0.64,0.62-1.1,1.56-1.45,2.36c-0.74,1.69-1.05,3.64-0.33,5.4c0.73,1.79,2.3,3.15,4.27,3.27c0.54,0.03,1-0.48,1-1
				c0-0.57-0.46-0.97-1-1c-1.17-0.07-2.13-1.1-2.49-2.18c-0.49-1.5,0-3.12,0.76-4.45c0.06-0.1,0.67-0.95,0.65-0.99
				c0.02,0.04-0.44,0.06-0.31-0.01c0.03-0.02,0.12,0.16,0.14,0.19c0.25,0.47,0.11,1.15-0.08,1.63c-0.41,1.05-1.43,1.92-2.55,1.98
				C86.25,64.49,86.24,66.49,87.53,66.41L87.53,66.41z"/>
		</g>
	</g>
	<g>
		<g>
			<path d="M96.84,57.28c0,3.72,0,7.44,0,11.16c0,1.29,2,1.29,2,0c0-3.72,0-7.44,0-11.16C98.84,55.99,96.84,55.99,96.84,57.28
				L96.84,57.28z"/>
		</g>
	</g>
	<g>
		<g>
			<path d="M103.99,65.54c1.26-0.68,2.63-1.13,4.04-1.33c0.28-0.04,0.65-0.07,0.96-0.09c0.16-0.01,0.32-0.02,0.47-0.01
				c0.02,0,0.24,0.03,0.14,0.01c-0.1-0.02,0.17,0.06,0.04,0.02c0,0-0.09-0.06-0.07-0.08c0,0,0.09,0.15,0.1,0.18
				c-0.06-0.15,0.05,0.31,0.04,0.23c-0.01-0.11,0,0.1,0.01,0.13c0,0.07,0,0.13,0,0.2c0,0.15-0.01,0.3-0.03,0.45
				c0.02-0.16,0,0-0.01,0.03c-0.02,0.08-0.03,0.16-0.05,0.24c-0.03,0.13-0.07,0.26-0.11,0.38c-0.02,0.06-0.04,0.13-0.07,0.19
				c-0.06,0.16,0.05-0.11-0.02,0.04c-0.07,0.14-0.13,0.27-0.21,0.4c-0.08,0.13-0.16,0.26-0.25,0.38c-0.01,0.02-0.14,0.18-0.07,0.1
				c0.06-0.08-0.07,0.08-0.08,0.09c-0.19,0.22-0.39,0.41-0.61,0.6c-0.24,0.21,0.07-0.05-0.08,0.06c-0.05,0.04-0.11,0.08-0.17,0.11
				c-0.11,0.07-0.23,0.14-0.34,0.21c-0.12,0.06-0.24,0.13-0.36,0.18c-0.15,0.07,0.12-0.04-0.04,0.01c-0.09,0.03-0.19,0.07-0.28,0.1
				c-0.13,0.04-0.26,0.07-0.39,0.1c-0.02,0-0.23,0.04-0.11,0.02c0.11-0.02-0.09,0.01-0.12,0.01c-0.14,0.01-0.27,0.02-0.41,0.01
				c-0.02,0-0.24-0.02-0.14,0c0.11,0.02-0.27-0.09-0.17-0.05c0.03,0.01,0.04,0.03,0.06,0.05c0.06,0.05-0.08-0.15-0.03-0.04
				c-0.08-0.17-0.11-0.38-0.14-0.56c-0.04-0.25-0.05-0.67-0.03-1c0.04-0.65,0.28-1.36,0.65-1.96c0.28-0.46,0.1-1.1-0.36-1.37
				c-0.47-0.28-1.09-0.11-1.37,0.36c-0.51,0.85-0.81,1.8-0.9,2.79c-0.08,0.86-0.03,1.94,0.41,2.72c0.96,1.67,3.47,1.1,4.83,0.31
				c1.36-0.79,2.43-2.14,2.83-3.67c0.2-0.78,0.28-1.72,0.01-2.5c-0.37-1.07-1.28-1.53-2.38-1.5c-2.17,0.07-4.3,0.67-6.21,1.7
				c-0.48,0.26-0.62,0.91-0.36,1.37C102.9,65.66,103.51,65.8,103.99,65.54L103.99,65.54z"/>
		</g>
	</g>
	<g>
		<g>
			<path d="M113.66,63.42c-0.09,3.35-0.18,6.7-0.27,10.05c-0.03,1.29,1.97,1.29,2,0c0.09-3.35,0.18-6.7,0.27-10.05
				C115.69,62.13,113.69,62.13,113.66,63.42L113.66,63.42z"/>
		</g>
	</g>
	<g>
		<g>
			<path d="M115.6,65.22c0.42-0.34,0.58-0.48,1.01-0.78c0.18-0.12,0.37-0.24,0.56-0.35c0.1-0.06,0.21-0.11,0.31-0.16
				c0,0,0.15-0.07,0.06-0.03c-0.09,0.04,0.14-0.05,0.16-0.06c0.2-0.07,0.4-0.11,0.6-0.17c0.11-0.03-0.05,0-0.06,0.01
				c0.05,0,0.11-0.01,0.16-0.01c0.11-0.01,0.22-0.01,0.33,0c0.08,0,0.16,0.01,0.25,0.02c-0.21-0.02,0.02,0.01,0.1,0.03
				c0.09,0.02,0.18,0.05,0.27,0.08c0.02,0.01,0.15,0.05,0.03,0.01c-0.12-0.04,0.04,0.02,0.06,0.03c0.08,0.04,0.16,0.09,0.24,0.14
				c0.02,0.01,0.13,0.08,0.03,0.01c-0.11-0.08,0.03,0.02,0.05,0.05c0.05,0.05,0.11,0.12,0.16,0.17c0.1,0.08-0.07-0.14-0.01-0.02
				c0.02,0.04,0.06,0.09,0.08,0.13c0.02,0.03,0.09,0.18,0.04,0.06c-0.05-0.11,0,0.02,0.01,0.04c0.01,0.04,0.02,0.08,0.03,0.12
				c0.01,0.03,0.04,0.21,0.02,0.07c-0.02-0.12,0,0.11,0,0.16c0,0.06-0.01,0.11-0.01,0.17c0,0.14,0.04-0.15,0-0.02
				c-0.03,0.09-0.05,0.19-0.08,0.28c-0.05,0.18,0.06-0.09-0.03,0.08c-0.05,0.09-0.09,0.18-0.15,0.26c-0.02,0.04-0.05,0.07-0.07,0.11
				c-0.14,0.22,0.07-0.07-0.03,0.04c-0.13,0.14-0.26,0.28-0.4,0.4c-0.03,0.03-0.15,0.09,0,0c-0.04,0.02-0.07,0.05-0.11,0.07
				c-0.11,0.07-0.22,0.13-0.33,0.19c-0.05,0.02-0.09,0.04-0.14,0.07c0.1-0.04,0,0-0.04,0.02c-0.13,0.05-0.26,0.09-0.39,0.13
				c-0.26,0.08-0.53,0.13-0.8,0.17c0,0-0.17,0.02-0.07,0.01c0.09-0.01-0.18,0.02-0.17,0.02c-0.12,0.01-0.24,0.02-0.36,0.03
				c-0.29,0.02-0.58,0.04-0.88,0.05c-0.52,0.02-1.02,0.44-1,1c0.02,0.52,0.44,1.03,1,1c1.27-0.06,2.54-0.16,3.72-0.7
				c1.04-0.48,1.9-1.43,2.21-2.54c0.31-1.13-0.03-2.37-0.95-3.11c-0.93-0.74-2.13-0.96-3.29-0.74c-1.37,0.27-2.5,1.2-3.55,2.05
				c-0.41,0.33-0.37,1.07,0,1.41C114.62,65.62,115.17,65.58,115.6,65.22L115.6,65.22z"/>
		</g>
	</g>
	<g>
		<g>
			<path d="M127.99,68.4c0.87-0.26,1.77-0.49,2.62-0.8c0.72-0.26,1.45-0.64,1.84-1.34c0.99-1.76-0.96-3.19-2.35-3.85
				c-0.8-0.38-1.66-0.64-2.55-0.49c-0.81,0.14-1.53,0.7-1.88,1.45c-0.35,0.75-0.41,1.57-0.43,2.39c-0.02,0.95-0.01,1.89,0.15,2.82
				c0.32,1.78,1.53,3.59,3.41,3.95c0.53,0.1,1.08-0.15,1.23-0.7c0.13-0.49-0.17-1.13-0.7-1.23c-0.92-0.18-1.56-0.93-1.84-1.83
				c-0.37-1.19-0.33-2.55-0.22-3.78c0.03-0.37,0.11-0.8,0.41-1.03c0.05-0.04,0.25-0.09,0.3-0.1c0.26-0.02,0.41,0.02,0.68,0.1
				c0.51,0.16,0.98,0.45,1.43,0.74c0.19,0.13,0.36,0.24,0.52,0.42c0.03,0.03,0.08,0.1,0.08,0.11c-0.03-0.07,0.01,0.16,0.02,0.08
				c0-0.07,0.02-0.07-0.02-0.03c-0.08,0.08,0.15-0.11-0.03,0.02c-0.09,0.07-0.06,0.07-0.22,0.16c-0.25,0.15-0.35,0.17-0.63,0.26
				c-0.78,0.25-1.57,0.47-2.36,0.71C126.23,66.84,126.76,68.77,127.99,68.4L127.99,68.4z"/>
		</g>
	</g>
	<g>
		<g>
			<path d="M134.12,63.71c0.27,2.95,0.54,5.9,0.81,8.86c0.05,0.49,0.35,0.92,0.87,0.98c0.45,0.05,1.01-0.22,1.1-0.72
				c0.2-1.13,0.08-2.25,0.2-3.39c0.08-0.77,0.37-1.43,0.81-2.06c0.85-1.21,2.31-1.98,3.74-1.99c1.29-0.01,1.29-2.01,0-2
				c-2.04,0.01-3.96,1.03-5.21,2.63c-0.6,0.77-1.06,1.68-1.24,2.64c-0.23,1.2-0.02,2.43-0.23,3.63c0.65,0.09,1.31,0.18,1.96,0.27
				c-0.27-2.95-0.54-5.9-0.81-8.86c-0.05-0.54-0.42-1-1-1C134.62,62.71,134.07,63.17,134.12,63.71L134.12,63.71z"/>
		</g>
	</g>
	<g>
		<g>
			<path d="M302.2,175.89c-0.16,3.63-0.08,7.26,0.25,10.88c0.06,0.64,1.06,0.64,1,0c-0.33-3.62-0.41-7.25-0.25-10.88
				C303.23,175.24,302.23,175.24,302.2,175.89L302.2,175.89z"/>
		</g>
	</g>
	<g>
		<g>
			<path d="M303.41,177.33c1.28-0.24,2.93-0.53,3.89,0.6c0.83,0.99-0.07,2.21-1.06,2.63c-0.77,0.33-1.62,0.36-2.44,0.41
				c-0.64,0.04-0.64,1.04,0,1c1.68-0.09,3.69-0.33,4.54-2.02c0.37-0.74,0.39-1.6-0.04-2.32c-0.41-0.68-1.13-1.16-1.89-1.37
				c-1.07-0.29-2.2-0.09-3.27,0.11c-0.27,0.05-0.42,0.37-0.35,0.62C302.87,177.26,303.14,177.38,303.41,177.33L303.41,177.33z"/>
		</g>
	</g>
	<g>
		<g>
			<path d="M309.43,182.3c0.01,1.51,0.01,3.01,0.02,4.52c0.33-0.04,0.65-0.09,0.98-0.13c-0.33-1.52,0.29-3.12,1.48-4.09
				c0.21-0.17,0.18-0.53,0-0.71c-0.21-0.21-0.5-0.17-0.71,0c-1.48,1.2-2.14,3.22-1.74,5.06c0.12,0.56,0.98,0.42,0.98-0.13
				c-0.01-1.51-0.01-3.01-0.02-4.52C310.43,181.66,309.43,181.66,309.43,182.3L309.43,182.3z"/>
		</g>
	</g>
	<g>
		<g>
			<path d="M314.43,182.45c-0.09-0.01,0.04,0.01,0.07,0.02c0.07,0.02-0.06-0.04,0,0c0.02,0.01,0.04,0.02,0.06,0.03
				c0.08,0.05,0.02,0.02,0,0c0.02,0.02,0.04,0.04,0.06,0.06c0.02,0.02,0.03,0.03,0.05,0.05c0.03,0.04-0.02-0.05,0.02,0.03
				c0.13,0.24,0.18,0.34,0.25,0.63c0.03,0.12,0.05,0.23,0.07,0.35c0,0.01,0.01,0.1,0,0.01c0,0.02,0.01,0.05,0.01,0.08
				c0.01,0.08,0.02,0.15,0.02,0.23c0.01,0.12,0.01,0.24,0.01,0.37c0,0.1-0.01,0.3-0.02,0.35c-0.01,0.05-0.04,0.22-0.07,0.32
				c-0.01,0.02-0.02,0.05-0.02,0.07c-0.03,0.08,0.03-0.06,0,0.01c-0.03,0.06-0.06,0.11-0.09,0.16c-0.04,0.07,0.05-0.05,0,0.01
				c-0.01,0.02-0.03,0.03-0.05,0.05c-0.02,0.02-0.04,0.04-0.07,0.06c0.01-0.01,0.06-0.04,0.01-0.01c-0.12,0.08-0.16,0.1-0.25,0.11
				c-0.08,0.01-0.12,0-0.23-0.03c-0.01,0-0.11-0.04-0.06-0.02c0.04,0.02-0.04-0.02-0.03-0.02c-0.03-0.02-0.06-0.03-0.09-0.05
				c-0.01-0.01-0.07-0.05-0.03-0.02c-0.06-0.04-0.11-0.1-0.16-0.15c-0.04-0.04-0.07-0.08-0.08-0.09c-0.07-0.1-0.14-0.23-0.16-0.3
				c-0.22-0.7,0.16-1.47,0.45-2.1c0.11-0.24,0.07-0.54-0.18-0.68c-0.22-0.13-0.57-0.07-0.68,0.18c-0.4,0.85-0.82,1.8-0.58,2.76
				c0.19,0.76,0.86,1.42,1.64,1.51c0.8,0.09,1.43-0.51,1.64-1.23c0.19-0.66,0.13-1.4-0.01-2.07c-0.17-0.81-0.61-1.6-1.51-1.69
				c-0.27-0.03-0.5,0.25-0.5,0.5C313.93,182.24,314.16,182.42,314.43,182.45L314.43,182.45z"/>
		</g>
	</g>
	<g>
		<g>
			<path d="M317.02,180.14c1.3-0.2,2.52-0.78,3.51-1.64c0.24-0.21,0.47-0.45,0.68-0.69c0.18-0.21,0.46-0.49,0.5-0.77
				c0.07-0.48-0.47-0.94-0.87-1.09c-0.9-0.33-2.03,0.11-2.5,0.93c-0.75,1.3-0.14,2.92,0.16,4.26c0.41,1.88,0.64,3.79,0.7,5.71
				c0.02,0.64,1.02,0.64,1,0c-0.07-2.29-0.39-4.57-0.92-6.8c-0.2-0.82-0.59-2.09,0.04-2.81c0.27-0.3,1.2-0.68,1.43-0.13
				c0.02-0.13,0.03-0.26,0.05-0.39c-0.94,1.35-2.41,2.21-4.03,2.46C316.12,179.27,316.39,180.23,317.02,180.14L317.02,180.14z"/>
		</g>
	</g>
	<g>
		<g>
			<path d="M318.44,185.02c1.02-0.38,2.04-0.76,3.06-1.14c0.24-0.09,0.44-0.34,0.35-0.62c-0.08-0.24-0.35-0.45-0.62-0.35
				c-1.02,0.38-2.04,0.76-3.06,1.14c-0.24,0.09-0.44,0.34-0.35,0.62C317.9,184.91,318.18,185.12,318.44,185.02L318.44,185.02z"/>
		</g>
	</g>
	<g>
		<g>
			<path d="M323.88,184.23c0.97-0.05,2.07-0.25,2.63-1.13c0.5-0.78,0.38-1.96-0.54-2.37c-0.98-0.44-2.01,0.19-2.41,1.1
				c-0.38,0.86-0.36,1.89-0.02,2.76c0.38,0.98,1.09,1.83,2.05,2.27c0.24,0.11,0.54,0.07,0.68-0.18c0.13-0.22,0.07-0.57-0.18-0.68
				c-1.16-0.54-1.9-1.75-1.81-3.03c0.04-0.55,0.29-1.28,0.91-1.38c0.54-0.08,0.71,0.4,0.54,0.82c-0.28,0.7-1.22,0.79-1.86,0.82
				C323.24,183.27,323.24,184.27,323.88,184.23L323.88,184.23z"/>
		</g>
	</g>
	<g>
		<g>
			<path d="M330.19,181.85c-0.53-0.42-1.22-0.33-1.69,0.15c-0.56,0.58-0.47,1.39-0.17,2.07c0.23,0.53,0.86,1.28,0.6,1.89
				c-0.21,0.47-0.84,0.66-1.29,0.81c-0.61,0.2-0.35,1.17,0.27,0.96c0.54-0.18,1.1-0.4,1.53-0.8c0.51-0.49,0.65-1.19,0.46-1.86
				c-0.19-0.65-0.7-1.21-0.8-1.88c-0.03-0.22,0-0.4,0.16-0.54c0.05-0.05,0.14-0.08,0.19-0.1c-0.02,0.01,0.06,0.01,0.04-0.01
				c0.21,0.17,0.5,0.21,0.71,0C330.36,182.39,330.4,182.02,330.19,181.85L330.19,181.85z"/>
		</g>
	</g>
	<g>
		<g>
			<path d="M333.49,181.98c-0.64-0.2-1.24,0.14-1.6,0.66c-0.4,0.58-0.44,1.26-0.29,1.92c0.08,0.35,0.2,0.69,0.29,1.04
				c0.07,0.27,0.15,0.59,0.07,0.87c-0.05,0.2-0.17,0.4-0.34,0.54c-0.09,0.07-0.16,0.11-0.26,0.13c0.07-0.01-0.08-0.01-0.02,0
				c-0.06-0.01-0.08-0.02-0.15-0.07c-0.54-0.35-1.04,0.51-0.5,0.86c0.58,0.38,1.29,0.16,1.74-0.31c0.51-0.53,0.63-1.2,0.51-1.91
				c-0.06-0.35-0.17-0.69-0.27-1.04c-0.09-0.31-0.19-0.65-0.15-0.97c0.03-0.22,0.13-0.44,0.28-0.61c0.15-0.17,0.26-0.21,0.43-0.15
				C333.84,183.14,334.1,182.17,333.49,181.98L333.49,181.98z"/>
		</g>
	</g>
	<g>
		<g>
			<path d="M336.24,182.3c-0.07,1.55-0.42,3.08-1.06,4.5c-0.11,0.25-0.07,0.54,0.18,0.68c0.21,0.13,0.57,0.07,0.68-0.18
				c0.71-1.58,1.12-3.27,1.19-5C337.27,181.66,336.27,181.66,336.24,182.3L336.24,182.3z"/>
		</g>
	</g>
	<g>
		<g>
			<path d="M337.28,179.57c-0.28,0-0.56,0-0.84,0c-0.13,0-0.26,0.06-0.35,0.15c-0.09,0.09-0.15,0.23-0.15,0.35
				c0.01,0.13,0.05,0.26,0.15,0.35c0.1,0.09,0.22,0.15,0.35,0.15c0.28,0,0.56,0,0.84,0c0.13,0,0.26-0.06,0.35-0.15
				c0.09-0.09,0.15-0.23,0.15-0.35c-0.01-0.13-0.05-0.26-0.15-0.35C337.53,179.63,337.41,179.57,337.28,179.57L337.28,179.57z"/>
		</g>
	</g>
	<g>
		<g>
			<path d="M339.57,183.7c0.52-0.31,1.14-0.2,1.63,0.11c0.58,0.37,0.86,1.04,0.9,1.71c0.04,0.75-0.16,1.56-0.57,2.2
				c-0.16,0.25-0.41,0.5-0.72,0.53c-0.18,0.02-0.41-0.04-0.5-0.21c-0.1-0.19-0.05-0.5-0.04-0.7c0-0.28,0.01-0.56,0.01-0.84
				c0.01-0.56,0.02-1.12,0.02-1.68c0.01-0.64-0.99-0.64-1,0c-0.01,0.63-0.02,1.26-0.03,1.89c-0.01,0.58-0.11,1.27,0.15,1.8
				c0.22,0.45,0.7,0.68,1.17,0.73c0.5,0.05,0.98-0.15,1.35-0.49c0.76-0.67,1.09-1.87,1.14-2.85c0.05-1.01-0.28-2.09-1.08-2.74
				c-0.83-0.67-2-0.91-2.95-0.34C338.52,183.17,339.02,184.04,339.57,183.7L339.57,183.7z"/>
		</g>
	</g>
	<g>
		<g>
			<path d="M344.3,184.53c0.01,1.5,0.02,2.99,0.03,4.49c0,0.36,0.43,0.65,0.75,0.43c0.56-0.39,0.78-0.98,0.92-1.62
				c0.11-0.53,0.16-1.18,0.63-1.5c0.51-0.35,1.26-0.43,1.85-0.3c0.56,0.13,1.07,0.47,1.23,1.01c0.15,0.52,0.03,1.12-0.45,1.39
				c-0.56,0.31-0.06,1.17,0.5,0.86c0.67-0.37,1.02-1.12,1.01-1.87c-0.02-0.82-0.43-1.54-1.12-1.98c-0.73-0.47-1.67-0.55-2.51-0.37
				c-0.45,0.1-0.89,0.28-1.24,0.57c-0.31,0.26-0.51,0.62-0.64,1c-0.13,0.37-0.18,0.76-0.27,1.15c-0.08,0.32-0.17,0.64-0.41,0.8
				c0.25,0.14,0.5,0.29,0.75,0.43c-0.01-1.5-0.02-2.99-0.03-4.49C345.3,183.89,344.3,183.89,344.3,184.53L344.3,184.53z"/>
		</g>
	</g>
	<g>
		<g>
			<path d="M354.75,185.14c-0.89,0.34-1.81,0.7-2.49,1.38c-0.64,0.64-0.92,1.47-0.77,2.36c0.14,0.81,0.74,1.51,1.58,1.61
				c1.01,0.12,1.84-0.68,2.27-1.52c0.46-0.9,0.5-2.08,1.25-2.82c-0.28-0.12-0.57-0.24-0.85-0.35c0.01,1.06,0.02,2.13,0.03,3.19
				c0.01,0.64,1.01,0.64,1,0c-0.01-1.06-0.02-2.13-0.03-3.19c0-0.43-0.54-0.66-0.85-0.35c-0.63,0.63-0.87,1.48-1.13,2.31
				c-0.2,0.63-0.53,1.42-1.17,1.68c-0.13,0.05-0.24,0.07-0.38,0.06c-0.06,0-0.06-0.01-0.16-0.03c-0.02-0.01-0.12-0.05-0.04-0.01
				c-0.04-0.02-0.08-0.04-0.12-0.07c-0.01-0.01-0.08-0.05-0.01,0c-0.02-0.02-0.05-0.04-0.07-0.06c-0.02-0.02-0.04-0.04-0.07-0.07
				c0,0.01-0.09-0.11-0.05-0.06c-0.06-0.08-0.12-0.22-0.15-0.3c-0.02-0.06-0.04-0.13-0.05-0.19c-0.01-0.04-0.02-0.08-0.02-0.12
				c-0.01-0.09,0.01,0.12,0-0.04c0-0.07-0.01-0.14-0.01-0.2c0-0.04,0.02-0.24,0.01-0.17c0.05-0.33,0.14-0.52,0.36-0.78
				c0.57-0.66,1.41-0.99,2.2-1.29c0.25-0.1,0.43-0.34,0.35-0.62C355.3,185.25,355.01,185.05,354.75,185.14L354.75,185.14z"/>
		</g>
	</g>
	<g>
		<g>
			<path d="M358.89,182.86c-0.11,2.42-0.23,4.84-0.34,7.25c-0.03,0.64,0.97,0.64,1,0c0.11-2.42,0.23-4.84,0.34-7.25
				C359.92,182.22,358.92,182.22,358.89,182.86L358.89,182.86z"/>
		</g>
	</g>
	<g>
		<g>
			<path d="M371.17,183.26c-2.24-0.7-4.76,1.01-5.01,3.32c-0.26,2.34,1.97,4.71,4.35,4.46c1.3-0.14,2.49-0.96,2.66-2.32
				c0.03-0.27-0.25-0.5-0.5-0.5c-0.3,0-0.47,0.23-0.5,0.5c-0.1,0.77-0.96,1.22-1.66,1.32c-0.86,0.12-1.74-0.27-2.35-0.86
				c-0.63-0.6-1.04-1.44-1.02-2.32c0.02-0.84,0.49-1.61,1.15-2.12c0.75-0.57,1.71-0.8,2.62-0.52
				C371.52,184.42,371.78,183.45,371.17,183.26L371.17,183.26z"/>
		</g>
	</g>
	<g>
		<g>
			<path d="M376.87,184.76c-1.53,0.68-3.4,1.73-3.25,3.68c0.06,0.76,0.42,1.55,1.14,1.89c0.89,0.41,1.9,0.06,2.53-0.64
				c0.81-0.9,0.89-2.14,0.92-3.29c-0.33,0-0.67,0-1,0c0.01,1.05,0.02,2.11,0.03,3.16c0.01,0.64,1.01,0.64,1,0
				c-0.01-1.05-0.02-2.11-0.03-3.16c-0.01-0.64-0.98-0.64-1,0c-0.02,0.79-0.03,1.66-0.45,2.35c-0.3,0.49-0.9,0.9-1.48,0.72
				c-0.39-0.12-0.64-0.61-0.66-1.05c-0.03-0.59,0.16-1.06,0.6-1.5c0.59-0.6,1.4-0.95,2.16-1.28c0.25-0.11,0.3-0.47,0.18-0.68
				C377.41,184.69,377.12,184.65,376.87,184.76L376.87,184.76z"/>
		</g>
	</g>
	<g>
		<g>
			<path d="M380,185.65c0.04,1.47,0.09,2.94,0.13,4.4c0.01,0.27,0.22,0.5,0.5,0.5c0.3,0,0.47-0.23,0.5-0.5
				c0.2-1.59,1.56-2.93,3.14-3.23c0.27-0.05,0.42-0.37,0.35-0.62c-0.08-0.28-0.35-0.4-0.62-0.35c-2.04,0.38-3.61,2.16-3.87,4.19
				c0.33,0,0.67,0,1,0c-0.04-1.47-0.09-2.94-0.13-4.4C380.98,185.01,379.98,185.01,380,185.65L380,185.65z"/>
		</g>
	</g>
	<g>
		<g>
			<path d="M388.14,181.46c-0.01,1.68-0.02,3.36-0.03,5.04c0,0.68,0.04,1.38-0.05,2.05c-0.06,0.48-0.21,1.09-0.71,1.3
				c-0.47,0.2-1.06-0.05-1.36-0.44c-0.39-0.51-0.38-1.25-0.2-1.83c0.07-0.21,0.07-0.24,0.28-0.13c0.13,0.06,0.25,0.15,0.37,0.23
				c0.3,0.19,0.58,0.4,0.85,0.63c0.57,0.48,1.08,1.02,1.53,1.6c0.39,0.51,1.1-0.2,0.71-0.71c-0.46-0.59-0.97-1.13-1.53-1.6
				c-0.53-0.44-1.18-1.02-1.86-1.19c-1.57-0.37-1.64,2.1-1.26,3.03c0.46,1.13,1.82,1.85,2.97,1.27c1.19-0.6,1.24-2.11,1.25-3.26
				c0.01-2,0.02-3.99,0.03-5.99C389.14,180.82,388.14,180.82,388.14,181.46L388.14,181.46z"/>
		</g>
	</g>
</g>
<g id="github">
	<g>
		<g>
			<path d="M37.78,117.03c-3.18-2.73-4.11-7.69-1.86-11.31c1.08-1.74,2.76-3.19,2.68-5.42c-0.08-2.1-1.99-4.04-1.63-6.13
				c-0.41,0.23-0.82,0.47-1.23,0.7c2.79,1.18,5.11,3.21,6.7,5.79c0.35,0.57,1.09,0.64,1.57,0.2c2.4-2.18,6.51-1.15,7.83,1.72
				c0.26,0.57,1.17,0.65,1.57,0.2c2.03-2.26,4.05-4.52,6.08-6.78c-0.56-0.15-1.11-0.29-1.67-0.44c0.45,1.75,0.22,3.56,0.46,5.34
				c0.22,1.68,1.2,2.89,1.65,4.47c0.9,3.14-0.87,7.19-2.69,9.69c-0.94,1.3-2.28,2.23-3.21,3.52c-0.94,1.3-0.98,2.82-1,4.36
				c-0.03,4.07,0.1,8.14,0.36,12.21c0.08,1.28,2.08,1.29,2,0c-0.26-4.06-0.39-8.14-0.36-12.21c0.01-0.83-0.06-1.78,0.25-2.56
				c0.35-0.89,1.19-1.49,1.85-2.14c1.14-1.13,2.13-2.43,2.89-3.84c1.46-2.67,2.63-6.3,1.89-9.35c-0.4-1.66-1.52-2.95-1.7-4.69
				c-0.18-1.79-0.02-3.56-0.47-5.32c-0.18-0.7-1.17-1-1.67-0.44c-2.03,2.26-4.05,4.52-6.08,6.78c0.52,0.07,1.05,0.13,1.57,0.2
				c-1.88-4.09-7.69-5.09-10.97-2.12c0.52,0.07,1.05,0.13,1.57,0.2c-1.88-3.05-4.59-5.32-7.89-6.71c-0.47-0.2-1.15,0.22-1.23,0.7
				c-0.19,1.1-0.05,2.11,0.35,3.16c0.41,1.08,1.1,2.17,1.21,3.34c0.12,1.33-0.8,2.4-1.55,3.39c-0.69,0.92-1.29,1.85-1.69,2.93
				c-1.55,4.12-0.33,9.12,3.02,11.99C37.33,119.28,38.75,117.87,37.78,117.03L37.78,117.03z"/>
		</g>
	</g>
	<g>
		<g>
			<path d="M36.14,117.52c0.76,2.48,1.14,5.03,1.08,7.62c-0.02,0.72,0.16,2.97-0.67,3.19c-0.93,0.24-2.23-0.5-3-0.94
				c-1.95-1.12-3.23-2.84-4.88-4.29c-1.79-1.58-4.73-1.04-6.9-0.77c0.09,0.65,0.18,1.31,0.27,1.96c1.81-0.61,3.55,0.52,4.92,1.61
				c1.38,1.1,2.68,2.3,4.09,3.36c1.36,1.02,2.8,1.79,4.4,2.35c0.28,0.1,0.69,0.19,0.83,0.49c0.14,0.32,0.03,0.9,0.03,1.24
				c-0.01,1.07-0.01,2.13-0.02,3.2c-0.01,1.29,1.99,1.29,2,0c0.01-1.18,0.02-2.37,0.02-3.55c0-0.92-0.04-1.81-0.75-2.49
				c-0.66-0.62-1.6-0.77-2.41-1.11c-1.02-0.42-1.96-1.02-2.84-1.67c-3.03-2.21-6.54-6.79-10.8-5.36c-1,0.34-0.92,2.11,0.27,1.96
				c1.44-0.18,3.14-0.46,4.58-0.21c1.17,0.2,2,1.56,2.81,2.34c1.74,1.69,3.91,3.42,6.38,3.81c0.98,0.16,2.08,0.04,2.8-0.72
				c0.88-0.93,0.81-2.69,0.87-3.88c0.13-2.93-0.27-5.88-1.13-8.68C37.69,115.76,35.76,116.28,36.14,117.52L36.14,117.52z"/>
		</g>
	</g>
	<g>
		<g>
			<path d="M34.66,141.72c-5.48-1.83-10.86-4.78-14.53-9.34c-1.81-2.25-3.09-4.89-3.63-7.72c-0.69-3.6-0.16-7.31,0.71-10.83
				c0.79-3.24,1.81-6.46,2.96-9.59c1.07-2.93,2.38-5.83,4.28-8.33c4.09-5.36,10.69-7.28,16.86-9.18c6.78-2.08,13.84-3.74,20.7-1.07
				c5.98,2.33,10.92,7.1,14.66,12.2c3.66,5,5.55,10.71,5,16.93c-0.51,5.85-3.16,11.39-7.49,15.37c-5.49,5.04-12.79,8.36-19.95,10.18
				c-7.18,1.83-14.72,2.14-22.01,0.85c-1.26-0.22-1.8,1.7-0.53,1.93c13.96,2.47,28.97-0.58,40.56-8.86
				c5.38-3.84,9.29-9.08,10.81-15.58c1.39-5.97,0.74-12.37-2.12-17.81c-3.15-5.99-8.34-11.54-14.13-15.04
				c-2.81-1.7-5.92-2.92-9.18-3.38c-3.87-0.55-7.78-0.04-11.55,0.87c-3.72,0.89-7.42,2.05-11.02,3.33
				c-3.21,1.14-6.33,2.56-8.99,4.72c-5.37,4.36-7.63,11.29-9.59,17.67c-2.13,6.91-3.63,14.4-0.15,21.14
				c2.82,5.47,8.11,9.36,13.62,11.83c1.37,0.62,2.77,1.16,4.2,1.63C35.35,144.06,35.88,142.13,34.66,141.72L34.66,141.72z"/>
		</g>
	</g>
</g>
<g id="mail">
	<g>
		<g>
			<path d="M27.42,158.25c3.73-1.72,7.98-1.52,11.99-1.51c4.4,0.01,8.81,0.01,13.21,0.02c2.93,0,7.93-0.7,9.88,2.15
				c1.1,1.6,0.82,3.82,0.77,5.66c-0.06,2.17-0.11,4.34-0.17,6.51c-0.05,2.03-0.05,4.08-0.18,6.11c-0.09,1.54-0.31,3.41-1.48,4.54
				c-1.45,1.41-3.93,1.07-5.78,1.07c-2.24,0-4.47-0.01-6.71-0.01c-4.47-0.01-8.94-0.01-13.41-0.02c-2.24,0-4.47-0.01-6.71-0.01
				c-1.63,0-4.27,0.41-5.15-1.36c-0.46-0.93-0.41-2.1-0.44-3.1c-0.04-1.24-0.07-2.47-0.11-3.71c-0.07-2.3-0.21-4.61-0.07-6.91
				c0.24-3.95,2.32-9.13,7.12-8.71c1.28,0.11,1.27-1.89,0-2c-3.97-0.34-7.17,2.84-8.36,6.38c-1.51,4.52-0.73,9.78-0.59,14.45
				c0.05,1.81-0.02,3.93,1.25,5.38c1.35,1.55,3.47,1.57,5.36,1.57c5.3,0.01,10.6,0.01,15.89,0.02c2.65,0,5.3,0.01,7.95,0.01
				c2.48,0,5.06,0.2,7.52-0.08c4.27-0.48,5.55-4.08,5.73-7.88c0.12-2.48,0.14-4.96,0.2-7.44c0.06-2.47,0.25-4.98,0.16-7.46
				c-0.08-1.95-0.59-3.9-2.12-5.22c-1.34-1.15-3.08-1.6-4.8-1.8c-2.55-0.3-5.16-0.14-7.72-0.15c-2.94,0-5.87-0.01-8.81-0.01
				c-5.17-0.01-10.63-0.44-15.45,1.78C25.24,157.07,26.26,158.79,27.42,158.25L27.42,158.25z"/>
		</g>
	</g>
	<g>
		<g>
			<path d="M23.39,160.91c1.76,0.73,2.94,2.33,4.25,3.63c1.36,1.35,2.88,2.52,4.48,3.57c1.54,1.01,3.16,1.89,4.79,2.73
				c1.39,0.72,3.18,2.03,4.83,1.76c0.87-0.15,1.63-0.7,2.38-1.14c0.93-0.55,1.85-1.1,2.78-1.65c1.93-1.14,3.85-2.28,5.78-3.42
				c2-1.18,4-2.37,5.99-3.55c1.71-1.01,3.43-2,4.91-3.34c0.96-0.86-0.46-2.28-1.41-1.41c-1.47,1.33-3.23,2.28-4.93,3.29
				c-1.78,1.06-3.57,2.11-5.35,3.17c-1.78,1.06-3.57,2.11-5.35,3.17c-0.93,0.55-1.85,1.1-2.78,1.65c-0.73,0.43-1.84,1.4-2.75,1.25
				c-0.79-0.13-1.62-0.74-2.33-1.1c-0.82-0.42-1.64-0.84-2.45-1.28c-1.55-0.85-3.07-1.75-4.49-2.8c-2.72-2-4.65-5.13-7.83-6.44
				C22.73,158.49,22.21,160.43,23.39,160.91L23.39,160.91z"/>
		</g>
	</g>
</g>
</svg>
